<svg width="48.000000" height="48.000000" viewBox="0 0 48 48" fill="none" xmlns="http://www.w3.org/2000/svg" xmlns:xlink="http://www.w3.org/1999/xlink">
	<desc>
			Created with Pixso.
	</desc>
	<defs>
		<clipPath id="clip993_496">
			<rect id="clarity:users-line" width="48.000000" height="44.210526" transform="translate(0.000000 2.000000)" fill="white" fill-opacity="0"/>
		</clipPath>
		<clipPath id="clip965_120">
			<rect id="icn settings .icn-lg" width="48.000000" height="48.000000" transform="translate(-0.500000 0.000000)" fill="white" fill-opacity="0"/>
		</clipPath>
	</defs>
	<rect id="icn settings .icn-lg" width="48.000000" height="48.000000" transform="translate(-0.500000 0.000000)" fill="#FFFFFF" fill-opacity="0"/>
	<g clip-path="url(#clip965_120)">
		<rect id="clarity:users-line" width="48.000000" height="44.210526" transform="translate(0.000000 2.000000)" fill="#FFFFFF" fill-opacity="0"/>
		<g clip-path="url(#clip993_496)">
			<path id="Vector" d="M23.84 22.8C28.14 22.8 31.49 19.3 31.49 15.01C31.49 10.72 27.98 7.39 23.68 7.39C19.37 7.39 16.02 10.88 16.02 15.01C16.02 19.3 19.53 22.8 23.84 22.8ZM23.68 10.56C26.23 10.56 28.3 12.63 28.3 15.17C28.3 17.71 26.23 19.62 23.68 19.62C21.13 19.62 19.21 17.55 19.21 15.17C19.21 12.63 21.29 10.56 23.68 10.56Z" fill="#0D5C63" fill-opacity="1.000000" fill-rule="nonzero"/>
			<path id="Vector" d="M47.43 21.84C44.4 19.14 40.41 17.71 36.27 17.87L34.99 17.87C34.68 19.14 34.2 20.25 33.56 21.21C34.52 21.05 35.31 21.05 36.27 21.05C39.3 20.89 42.33 21.84 44.72 23.59L44.72 35.03L47.91 35.03L47.91 22.32L47.43 21.84Z" fill="#0D5C63" fill-opacity="1.000000" fill-rule="nonzero"/>
			<path id="Vector" d="M32.6 7.7C33.4 5.8 35.63 4.84 37.71 5.64C39.62 6.43 40.57 8.66 39.78 10.72C39.14 12.15 37.71 13.11 36.27 13.11C35.95 13.11 35.47 13.11 35.15 12.95C35.31 13.74 35.31 14.54 35.31 15.17L35.31 16.12C35.63 16.12 35.95 16.28 36.27 16.28C40.26 16.28 43.44 13.11 43.44 9.29C43.44 5.32 40.26 2.14 36.43 2.14C33.88 2.14 31.65 3.41 30.37 5.64C31.17 6.11 31.97 6.75 32.6 7.7Z" fill="#0D5C63" fill-opacity="1.000000" fill-rule="nonzero"/>
			<path id="Vector" d="M14.43 21.37C13.79 20.41 13.31 19.3 13 18.03L11.72 18.03C7.58 17.87 3.59 19.3 0.56 21.84L0.08 22.32L0.08 35.03L3.27 35.03L3.27 23.59C5.82 21.84 8.69 20.89 11.72 21.05C12.68 21.05 13.63 21.21 14.43 21.37Z" fill="#0D5C63" fill-opacity="1.000000" fill-rule="nonzero"/>
			<path id="Vector" d="M11.72 16.12C12.04 16.12 12.36 16.12 12.68 15.97L12.68 15.01C12.68 14.22 12.68 13.42 12.84 12.79C12.52 12.95 12.04 12.95 11.72 12.95C9.65 12.95 7.89 11.2 7.89 9.13C7.89 7.07 9.65 5.32 11.72 5.32C13.31 5.32 14.75 6.27 15.39 7.7C16.02 6.91 16.98 6.12 17.78 5.48C15.71 2.14 11.4 1.03 8.05 3.1C4.7 5.16 3.59 9.45 5.66 12.79C6.94 14.85 9.17 16.12 11.72 16.12Z" fill="#0D5C63" fill-opacity="1.000000" fill-rule="nonzero"/>
			<path id="Vector" d="M36.91 31.38L36.59 30.9C33.4 27.4 28.94 25.34 24.15 25.5C19.37 25.34 14.75 27.4 11.56 30.9L11.24 31.38L11.24 43.45C11.24 44.88 12.36 46.15 13.95 46.15L34.36 46.15C35.79 46.15 37.07 44.88 37.07 43.45L37.07 31.38L36.91 31.38ZM33.72 42.98L14.43 42.98L14.43 32.49C16.98 29.95 20.49 28.68 24.15 28.68C27.66 28.52 31.17 29.95 33.72 32.49L33.72 42.98Z" fill="#0D5C63" fill-opacity="1.000000" fill-rule="nonzero"/>
		</g>
	</g>
</svg>
