<svg width="47.000000" height="26.000000" viewBox="0 0 47 26" fill="none" xmlns="http://www.w3.org/2000/svg" xmlns:xlink="http://www.w3.org/1999/xlink">
	<desc>
			Created with Pixso.
	</desc>
	<defs/>
	<path id="Vector" d="M42.15 11.28C41.57 11.28 41 11.39 40.46 11.6L34.72 6.82C34.86 6.29 34.96 5.75 34.96 5.18C34.96 1.81 32.3 -0.91 28.98 -0.91C25.66 -0.91 23 1.81 23 5.18C23 6.15 23.23 7.05 23.62 7.86L16.66 16.24C16.38 16.18 16.1 16.16 15.81 16.15C15.39 16.15 14.98 16.23 14.59 16.33L8.45 10.08C8.56 9.69 8.63 9.28 8.63 8.84C8.63 6.14 6.5 3.96 3.84 3.96C1.19 3.96 -0.94 6.14 -0.94 8.84C-0.94 11.54 1.19 13.71 3.84 13.71C4.27 13.71 4.68 13.64 5.07 13.53L11.21 19.78C11.09 20.19 11.03 20.61 11.03 21.03C11.03 23.73 13.16 25.9 15.81 25.9C18.47 25.9 20.6 23.73 20.6 21.03C20.6 20.45 20.49 19.91 20.31 19.39L27.28 11C27.82 11.16 28.39 11.28 28.98 11.28C29.92 11.27 30.85 11.04 31.69 10.59L37.43 15.38C37.39 15.63 37.36 15.89 37.36 16.15C37.36 18.85 39.49 21.03 42.15 21.03C44.8 21.03 46.93 18.85 46.93 16.15C46.93 13.45 44.8 11.28 42.15 11.28Z" fill="#0D5C63" fill-opacity="1.000000" fill-rule="nonzero"/>
</svg>
