<svg width="36.000000" height="48.000000" viewBox="0 0 36 48" fill="none" xmlns="http://www.w3.org/2000/svg" xmlns:xlink="http://www.w3.org/1999/xlink">
	<desc>
			Created with Pixso.
	</desc>
	<defs>
		<clipPath id="clip993_514">
			<rect id="fa-solid:award" width="35.840000" height="48.000000" fill="white" fill-opacity="0"/>
		</clipPath>
	</defs>
	<rect id="fa-solid:award" width="35.840000" height="48.000000" fill="#FFFFFF" fill-opacity="0"/>
	<g clip-path="url(#clip993_514)">
		<path id="Vector" d="M9.06 33.99C8.25 33.18 8.67 33.4 6.71 32.88C5.83 32.64 5.05 32.18 4.34 31.63L0.11 42.06C-0.3 43.07 0.46 44.17 1.55 44.12L6.46 43.94L9.85 47.52C10.59 48.32 11.9 48.07 12.31 47.06L17.17 35.1C16.16 35.66 15.04 35.99 13.88 35.99C12.06 35.99 10.35 35.28 9.06 33.99ZM35.72 42.06L31.49 31.63C30.78 32.18 30 32.64 29.11 32.88C27.15 33.41 27.58 33.18 26.77 33.99C25.48 35.28 23.77 35.99 21.95 35.99C20.79 35.99 19.67 35.66 18.66 35.1L23.51 47.06C23.92 48.07 25.24 48.32 25.98 47.52L29.36 43.94L34.28 44.12C35.37 44.17 36.13 43.07 35.72 42.06ZM24.54 31.87C25.97 30.41 26.13 30.54 28.16 29.98C29.46 29.62 30.47 28.59 30.82 27.26C31.52 24.6 31.34 24.92 33.24 22.97C34.19 22 34.56 20.59 34.21 19.26C33.52 16.6 33.51 16.97 34.21 14.31C34.56 12.99 34.19 11.57 33.24 10.6C31.34 8.65 31.52 8.97 30.82 6.31C30.47 4.99 29.46 3.95 28.16 3.59C25.56 2.88 25.87 3.07 23.97 1.12C23.02 0.15 21.63 -0.23 20.34 0.12C17.74 0.84 18.1 0.84 15.49 0.12C14.2 -0.23 12.81 0.15 11.86 1.12C9.96 3.07 10.27 2.88 7.67 3.59C6.37 3.95 5.36 4.99 5.01 6.31C4.31 8.97 4.49 8.65 2.59 10.6C1.64 11.57 1.27 12.99 1.62 14.31C2.31 16.97 2.31 16.6 1.62 19.26C1.27 20.59 1.64 22 2.59 22.97C4.49 24.92 4.31 24.6 5.01 27.26C5.36 28.59 6.37 29.62 7.67 29.98C9.76 30.55 9.91 30.46 11.29 31.87C12.52 33.13 14.45 33.36 15.93 32.41C16.52 32.04 17.21 31.83 17.91 31.83C18.62 31.83 19.31 32.04 19.9 32.41C21.38 33.36 23.31 33.13 24.54 31.87ZM9.11 16.49C9.11 11.52 13.05 7.49 17.91 7.49C22.78 7.49 26.72 11.52 26.72 16.49C26.72 21.46 22.78 25.49 17.91 25.49C13.05 25.49 9.11 21.46 9.11 16.49Z" fill="#0D5C63" fill-opacity="1.000000" fill-rule="nonzero"/>
	</g>
</svg>
