<svg width="48.000000" height="48.000000" viewBox="0 0 48 48" fill="none" xmlns="http://www.w3.org/2000/svg" xmlns:xlink="http://www.w3.org/1999/xlink">
	<desc>
			Created with Pixso.
	</desc>
	<defs>
		<clipPath id="clip993_518">
			<rect id="carbon:tool-box" width="48.000000" height="40.708862" transform="translate(0.000000 4.000000)" fill="white" fill-opacity="0"/>
		</clipPath>
		<clipPath id="clip965_141">
			<rect id="icn settings .icn-lg" width="48.000000" height="48.000000" transform="translate(-0.500000 0.000000)" fill="white" fill-opacity="0"/>
		</clipPath>
	</defs>
	<rect id="icn settings .icn-lg" width="48.000000" height="48.000000" transform="translate(-0.500000 0.000000)" fill="#FFFFFF" fill-opacity="0"/>
	<g clip-path="url(#clip965_141)">
		<rect id="carbon:tool-box" width="48.000000" height="40.708862" transform="translate(0.000000 4.000000)" fill="#FFFFFF" fill-opacity="0"/>
		<g clip-path="url(#clip993_518)">
			<path id="Vector" d="M42.58 12.52L37.51 12.52L37.51 7.45C37.51 6.55 37.16 5.69 36.52 5.06C35.89 4.43 35.03 4.07 34.13 4.07L13.86 4.07C12.96 4.07 12.1 4.43 11.47 5.06C10.83 5.69 10.48 6.55 10.48 7.45L10.48 12.52L5.41 12.52C4.06 12.52 2.77 13.05 1.82 14.01C0.87 14.96 0.34 16.25 0.34 17.59L0.34 41.25C0.34 42.14 0.69 43 1.33 43.64C1.96 44.27 2.82 44.63 3.72 44.63L44.27 44.63C45.17 44.63 46.03 44.27 46.66 43.64C47.3 43 47.65 42.14 47.65 41.25L47.65 17.59C47.65 16.25 47.12 14.96 46.17 14.01C45.22 13.05 43.93 12.52 42.58 12.52ZM13.86 7.45L34.13 7.45L34.13 12.52L13.86 12.52L13.86 7.45ZM44.27 41.25L3.72 41.25L3.72 26.04L17.24 26.04L17.24 34.49L30.75 34.49L30.75 26.04L44.27 26.04L44.27 41.25ZM20.62 26.04L27.37 26.04L27.37 31.11L20.62 31.11L20.62 26.04ZM3.72 22.66L3.72 17.59C3.72 17.14 3.89 16.71 4.21 16.4C4.53 16.08 4.96 15.9 5.41 15.9L42.58 15.9C43.03 15.9 43.46 16.08 43.78 16.4C44.1 16.71 44.27 17.14 44.27 17.59L44.27 22.66L3.72 22.66Z" fill="#0D5C63" fill-opacity="1.000000" fill-rule="nonzero"/>
		</g>
	</g>
</svg>
