<svg width="47.000000" height="40.000000" viewBox="0 0 47 40" fill="none" xmlns="http://www.w3.org/2000/svg" xmlns:xlink="http://www.w3.org/1999/xlink">
	<desc>
			Created with Pixso.
	</desc>
	<defs/>
	<path id="Vector" d="M41.58 7.52L36.51 7.52L36.51 2.45C36.51 1.55 36.16 0.69 35.52 0.06C34.89 -0.57 34.03 -0.93 33.13 -0.93L12.86 -0.93C11.96 -0.93 11.1 -0.57 10.47 0.06C9.83 0.69 9.48 1.55 9.48 2.45L9.48 7.52L4.41 7.52C3.06 7.52 1.77 8.05 0.82 9.01C-0.13 9.96 -0.66 11.25 -0.66 12.59L-0.66 36.25C-0.66 37.14 -0.31 38 0.33 38.64C0.96 39.27 1.82 39.63 2.72 39.63L43.27 39.63C44.17 39.63 45.03 39.27 45.66 38.64C46.3 38 46.65 37.14 46.65 36.25L46.65 12.59C46.65 11.25 46.12 9.96 45.17 9.01C44.22 8.05 42.93 7.52 41.58 7.52ZM12.86 2.45L33.13 2.45L33.13 7.52L12.86 7.52L12.86 2.45ZM43.27 36.25L2.72 36.25L2.72 21.04L16.24 21.04L16.24 29.49L29.75 29.49L29.75 21.04L43.27 21.04L43.27 36.25ZM19.62 21.04L26.37 21.04L26.37 26.11L19.62 26.11L19.62 21.04ZM2.72 17.66L2.72 12.59C2.72 12.14 2.89 11.71 3.21 11.4C3.53 11.08 3.96 10.9 4.41 10.9L41.58 10.9C42.03 10.9 42.46 11.08 42.78 11.4C43.1 11.71 43.27 12.14 43.27 12.59L43.27 17.66L2.72 17.66Z" fill="#0D5C63" fill-opacity="1.000000" fill-rule="nonzero"/>
</svg>
